<svg baseProfile="full" height="100%" version="1.1" viewBox="-0.1,-0.25,1.2,0.5" width="100%" xmlns="http://www.w3.org/2000/svg">
<defs><style type="text/css">
            line { vector-effect: non-scaling-stroke; stroke-width: 1; fill: none}
            polyline { vector-effect: non-scaling-stroke; stroke-width: 1; fill: none}
        </style></defs><g transform="scale(1,-1)"><polyline stroke="black" stroke-width="0.25" points="1.0,0.000599 0.99,0.002969 0.98,0.005333 0.97,0.007687 0.96,0.010023 0.94,0.014624 0.92,0.019116 0.9,0.023502 0.88,0.027789 0.86,0.031974 0.84,0.036054 0.82,0.040024 0.8,0.043884 0.78,0.047628 0.76,0.051257 0.74,0.054767 0.72,0.05816 0.7,0.061433 0.68,0.064584 0.66,0.067605 0.64,0.070482 0.62,0.073206 0.6,0.075763 0.58,0.078145 0.56,0.080348 0.54,0.082371 0.52,0.084214 0.5,0.085877 0.48,0.087357 0.46,0.088643 0.44,0.089718 0.42,0.090566 0.4,0.091171 0.38,0.091521 0.36,0.091627 0.34,0.091508 0.32,0.091186 0.3,0.09068 0.28,0.090002 0.26,0.089084 0.24,0.087831 0.22,0.086143 0.2,0.08392 0.18,0.081069 0.16,0.077571 0.14,0.073436 0.12,0.06862 0.1,0.062998 0.08,0.056431 0.06,0.048757 0.05,0.044275 0.04,0.039128 0.03,0.033022 0.02,0.025374 0.012,0.017858 0.008,0.013735 0.004,0.008924 0.002,0.005803 0.001,0.003727 0.0005,0.002339 0.0,0.0 0.0005,-0.00467 0.001,-0.005942 0.002,-0.007811 0.004,-0.010513 0.008,-0.014286 0.012,-0.016973 0.02,-0.020272 0.03,-0.022606 0.04,-0.024521 0.05,-0.026045 0.06,-0.027128 0.08,-0.028459 0.1,-0.029379 0.12,-0.029963 0.14,-0.03024 0.16,-0.030255 0.18,-0.030049 0.2,-0.029666 0.22,-0.029145 0.24,-0.028518 0.26,-0.027816 0.28,-0.02707 0.3,-0.026308 0.32,-0.025556 0.34,-0.024818 0.36,-0.024087 0.38,-0.023361 0.4,-0.022634 0.42,-0.021904 0.44,-0.021171 0.46,-0.020435 0.48,-0.019699 0.5,-0.018962 0.52,-0.018226 0.54,-0.017491 0.56,-0.016757 0.58,-0.016023 0.6,-0.015289 0.62,-0.014555 0.64,-0.013821 0.66,-0.013086 0.68,-0.012351 0.7,-0.011617 0.72,-0.010882 0.74,-0.010148 0.76,-0.009413 0.78,-0.008679 0.8,-0.007944 0.82,-0.00721 0.84,-0.006475 0.86,-0.005741 0.88,-0.005006 0.9,-0.004272 0.92,-0.003537 0.94,-0.002803 0.96,-0.002068 0.97,-0.001701 0.98,-0.001334 0.99,-0.000967 1.0,-0.000599"></polyline><polyline stroke="red" stroke-width="0.25" points="0.0,0.0 0.0005,-0.0011654999999999999 0.001,-0.0011075 0.002,-0.0010039999999999997 0.004,-0.0007945000000000001 0.008,-0.0002754999999999997 0.012,0.0004425000000000019 0.02,0.002551000000000001 0.03,0.005208000000000001 0.04,0.007303500000000004 0.05,0.009114999999999998 0.06,0.010814500000000005 0.08,0.013986000000000002 0.1,0.0168095 0.12,0.019328500000000002 0.14,0.021598000000000003 0.16,0.023658000000000002 0.18,0.025509999999999998 0.2,0.027126999999999995 0.22,0.028499 0.24,0.029656500000000002 0.26,0.030634 0.28,0.031465999999999994 0.3,0.03218599999999999 0.32,0.032815 0.34,0.03334500000000001 0.36,0.033769999999999994 0.38,0.034080000000000006 0.4,0.0342685 0.42,0.03433099999999999 0.44,0.0342735 0.46,0.034103999999999995 0.48,0.033829000000000005 0.5,0.033457499999999994 0.52,0.032994 0.54,0.032440000000000004 0.56,0.0317955 0.58,0.031061000000000002 0.6,0.030236999999999997 0.62,0.029325499999999997 0.64,0.0283305 0.66,0.0272595 0.68,0.0261165 0.7,0.024908 0.72,0.023639000000000004 0.74,0.0223095 0.76,0.020921999999999996 0.78,0.0194745 0.8,0.01797 0.82,0.016406999999999998 0.84,0.014789500000000002 0.86,0.0131165 0.88,0.011391500000000002 0.9,0.009615 0.92,0.0077894999999999995 0.94,0.005910499999999999 0.96,0.0039775 0.97,0.002993 0.98,0.0019995000000000004 0.99,0.0010010000000000002 1.0,0.0"></polyline></g></svg>